<svg xmlns="http://www.w3.org/2000/svg" width="16" height="16" viewBox="0 0 16 16">
  <path id="Контур_6" data-name="Контур 6" d="M15.641,13.049,13.17,10.572a1.286,1.286,0,0,0-1.817.034l-1.245,1.247-.246-.137A12.389,12.389,0,0,1,6.869,9.546,12.485,12.485,0,0,1,4.7,6.54c-.046-.084-.09-.164-.134-.241L5.4,5.463l.411-.412A1.292,1.292,0,0,0,5.844,3.23L3.373.753A1.285,1.285,0,0,0,1.557.787l-.7.7.019.019A4.039,4.039,0,0,0,.305,2.523,4.214,4.214,0,0,0,.05,3.552C-.276,6.263.96,8.74,4.314,12.1c4.637,4.647,8.374,4.3,8.535,4.279a4.167,4.167,0,0,0,1.03-.259,4.011,4.011,0,0,0,1.009-.573l.015.014.705-.692A1.3,1.3,0,0,0,15.641,13.049Z" transform="translate(0 -0.394)" fill="#eb5469"/>
</svg>
