<svg xmlns="http://www.w3.org/2000/svg" xmlns:xlink="http://www.w3.org/1999/xlink" width="57.765" height="69.726" viewBox="0 0 57.765 69.726">
  <defs>
    <linearGradient id="linear-gradient" x1="0.5" x2="0.5" y2="1" gradientUnits="objectBoundingBox">
      <stop offset="0" stop-color="#e51a63"/>
      <stop offset="1" stop-color="#f0866f"/>
    </linearGradient>
  </defs>
  <g id="Вычитание_3" data-name="Вычитание 3" transform="translate(5227 681)" fill="url(#linear-gradient)">
    <path d="M -5193.6162109375 -615.0008544921875 L -5200.81640625 -620.3997802734375 L -5200.81787109375 -620.40087890625 L -5201.0732421875 -620.592529296875 L -5201.29931640625 -620.8184204101563 L -5215.3603515625 -634.8754272460938 C -5219.96484375 -639.4817504882813 -5222.5 -645.60498046875 -5222.5 -652.1181640625 C -5222.5 -658.63525390625 -5219.962890625 -664.7587890625 -5215.35595703125 -669.3607177734375 C -5210.75146484375 -673.9639282226563 -5204.62890625 -676.499755859375 -5198.1162109375 -676.499755859375 C -5191.60546875 -676.499755859375 -5185.48388671875 -673.9639282226563 -5180.8779296875 -669.359375 C -5176.27197265625 -664.7547607421875 -5173.7353515625 -658.6317138671875 -5173.7353515625 -652.1181640625 C -5173.7353515625 -645.6072998046875 -5176.271484375 -639.484130859375 -5180.876953125 -634.8766479492188 L -5193.6162109375 -622.1369018554688 L -5193.6162109375 -615.0008544921875 Z M -5198.1162109375 -656.4537353515625 C -5200.5087890625 -656.4537353515625 -5202.455078125 -654.5087890625 -5202.455078125 -652.1181640625 C -5202.455078125 -649.7264404296875 -5200.5087890625 -647.7805786132813 -5198.1162109375 -647.7805786132813 C -5195.72607421875 -647.7805786132813 -5193.78173828125 -649.7264404296875 -5193.78173828125 -652.1181640625 C -5193.78173828125 -654.5087890625 -5195.72607421875 -656.4537353515625 -5198.1162109375 -656.4537353515625 Z" stroke="none"/>
    <path d="M -5198.1162109375 -623.999755859375 L -5198.1162109375 -624.0008544921875 L -5184.0595703125 -638.057861328125 C -5180.3037109375 -641.8155517578125 -5178.2353515625 -646.808837890625 -5178.2353515625 -652.1181640625 C -5178.2353515625 -657.4293212890625 -5180.3037109375 -662.4222412109375 -5184.0595703125 -666.177001953125 C -5187.8154296875 -669.9319458007813 -5192.8076171875 -671.999755859375 -5198.1162109375 -671.999755859375 C -5203.427734375 -671.999755859375 -5208.419921875 -669.9319458007813 -5212.17578125 -666.177001953125 C -5215.9345703125 -662.4222412109375 -5218 -657.4293212890625 -5218 -652.1181640625 C -5218 -646.8084716796875 -5215.9345703125 -641.815185546875 -5212.1787109375 -638.057861328125 L -5198.11767578125 -624.0008544921875 L -5198.1162109375 -623.999755859375 M -5198.1162109375 -660.9537353515625 C -5193.244140625 -660.9537353515625 -5189.28173828125 -656.9898681640625 -5189.28173828125 -652.1181640625 C -5189.28173828125 -647.2451782226563 -5193.244140625 -643.2805786132813 -5198.1162109375 -643.2805786132813 C -5202.9912109375 -643.2805786132813 -5206.955078125 -647.2451782226563 -5206.955078125 -652.1181640625 C -5206.955078125 -656.9898681640625 -5202.9912109375 -660.9537353515625 -5198.1162109375 -660.9537353515625 M -5198.115234375 -611.2738037109375 L -5204.47900390625 -617.6348266601563 L -5218.54150390625 -631.6929321289063 C -5223.9970703125 -637.1502685546875 -5227 -644.4033203125 -5227 -652.1181640625 C -5227 -659.8381958007813 -5223.994140625 -667.0923461914063 -5218.5361328125 -672.5443725585938 C -5213.08349609375 -677.9959716796875 -5205.83056640625 -680.999755859375 -5198.1162109375 -680.999755859375 C -5190.40380859375 -680.999755859375 -5183.15185546875 -677.9959716796875 -5177.6962890625 -672.541748046875 C -5172.240234375 -667.0872192382813 -5169.2353515625 -659.8339233398438 -5169.2353515625 -652.1181640625 C -5169.2353515625 -644.4057006835938 -5172.2392578125 -637.1527709960938 -5177.69384765625 -631.6954345703125 L -5191.751953125 -617.636962890625 L -5198.115234375 -611.2738037109375 Z" stroke="none" fill="#fff"/>
  </g>
</svg>
