<svg xmlns="http://www.w3.org/2000/svg" width="16" height="12.571" viewBox="0 0 16 12.571">
  <path id="Объединение_1" data-name="Объединение 1" d="M293.429,69.571A1.434,1.434,0,0,1,292,68.142V61.053a4.705,4.705,0,0,0,.9.777q3.232,2.2,4.437,3.081.509.375.826.585a5.1,5.1,0,0,0,.843.428,2.573,2.573,0,0,0,.982.219h.018a2.577,2.577,0,0,0,.983-.219,5.139,5.139,0,0,0,.843-.428q.317-.211.826-.585,1.517-1.1,4.446-3.081a4.929,4.929,0,0,0,.893-.777v7.089a1.432,1.432,0,0,1-1.428,1.428ZM300,65h-.009a1.434,1.434,0,0,1-.446-.08,2.757,2.757,0,0,1-.513-.241c-.182-.107-.337-.2-.464-.29s-.289-.2-.482-.339-.319-.231-.379-.273q-.813-.571-2.34-1.629t-1.83-1.273a4.445,4.445,0,0,1-1.045-1.031A2.085,2.085,0,0,1,292,58.625a1.805,1.805,0,0,1,.371-1.161A1.275,1.275,0,0,1,293.429,57h13.143A1.441,1.441,0,0,1,308,58.429a2.358,2.358,0,0,1-.437,1.347,4.242,4.242,0,0,1-1.089,1.1l-4.179,2.9q-.089.062-.38.273t-.482.339c-.129.086-.283.183-.464.29a2.736,2.736,0,0,1-.514.241,1.429,1.429,0,0,1-.446.08Z" transform="translate(-292 -57)" fill="#eb5469"/>
</svg>
