<svg xmlns="http://www.w3.org/2000/svg" width="13.255" height="16" viewBox="0 0 13.255 16">
  <path id="Вычитание_2" data-name="Вычитание 2" d="M-5211.372-656h0l-4.687-4.686a6.585,6.585,0,0,1-1.94-4.687,6.579,6.579,0,0,1,1.941-4.686,6.585,6.585,0,0,1,4.687-1.941,6.584,6.584,0,0,1,4.686,1.941,6.583,6.583,0,0,1,1.941,4.686,6.587,6.587,0,0,1-1.941,4.687l-4.686,4.686Zm0-12.318a2.949,2.949,0,0,0-2.946,2.945,2.949,2.949,0,0,0,2.946,2.946,2.949,2.949,0,0,0,2.945-2.946A2.948,2.948,0,0,0-5211.372-668.318Z" transform="translate(5218 672)" fill="#eb5469"/>
</svg>
