<svg id="_2033364565184" xmlns="http://www.w3.org/2000/svg" xmlns:xlink="http://www.w3.org/1999/xlink" width="173.224" height="60" viewBox="0 0 173.224 60">
  <defs>
    <linearGradient id="linear-gradient" x1="0.028" x2="0.576" y2="0.996" gradientUnits="objectBoundingBox">
      <stop offset="0" stop-color="#5658b9"/>
      <stop offset="1" stop-color="#40bfee"/>
    </linearGradient>
    <linearGradient id="linear-gradient-2" x1="0.469" y1="0.002" x2="0.97" y2="1" gradientUnits="objectBoundingBox">
      <stop offset="0" stop-color="#e51a63"/>
      <stop offset="1" stop-color="#f0866f"/>
    </linearGradient>
  </defs>
  <path id="Контур_3" data-name="Контур 3" d="M80.182,8.919v9.238a.52.52,0,0,1-.158.384.53.53,0,0,1-.384.167h-.729a.53.53,0,0,1-.384-.167.52.52,0,0,1-.158-.384V10.072H73.76v8.086a.573.573,0,0,1-.552.552H72.49a.573.573,0,0,1-.552-.552V8.919a.573.573,0,0,1,.552-.552h7.15a.53.53,0,0,1,.384.167.52.52,0,0,1,.158.384Zm8.992,8.638v.6a.52.52,0,0,1-.158.384.53.53,0,0,1-.384.167H83.59a.574.574,0,0,1-.542-.552V8.919a.574.574,0,0,1,.542-.552h4.895a.53.53,0,0,1,.384.167.52.52,0,0,1,.158.384v.6a.52.52,0,0,1-.158.384.53.53,0,0,1-.384.167H84.86v2.571h3.181a.538.538,0,0,1,.542.542v.6a.52.52,0,0,1-.158.384.53.53,0,0,1-.384.167H84.86v2.669h3.772a.53.53,0,0,1,.384.167A.52.52,0,0,1,89.174,17.557Zm5.309-9.219a5.715,5.715,0,0,1,1.891.276,2.925,2.925,0,0,1,1.251.749,3.124,3.124,0,0,1,.65,1.054,3.623,3.623,0,0,1,.207,1.251,3.178,3.178,0,0,1-1,2.374,3.788,3.788,0,0,1-2.777.975c-.6,0-1.044-.02-1.339-.049v3.191a.573.573,0,0,1-.552.552h-.719a.573.573,0,0,1-.552-.552V8.919a.562.562,0,0,1,.158-.384.536.536,0,0,1,.394-.167q1.98-.03,2.393-.03ZM93.36,10.072v3.171c.522.049.946.069,1.28.069a2.154,2.154,0,0,0,1.4-.424,1.523,1.523,0,0,0,.522-1.241c0-1.074-.63-1.605-1.9-1.605l-1.3.03Zm13.6.808a2.434,2.434,0,0,1-1.477,2.364,2.356,2.356,0,0,1,1.812,2.423,2.736,2.736,0,0,1-1.034,2.3,4.435,4.435,0,0,1-2.8.8c-.877,0-1.655-.02-2.334-.049a.583.583,0,0,1-.384-.177.53.53,0,0,1-.167-.384V8.949a.558.558,0,0,1,.167-.4.583.583,0,0,1,.384-.177c1.359-.03,2.167-.039,2.433-.039a4.005,4.005,0,0,1,2.551.68,2.273,2.273,0,0,1,.847,1.871Zm-3.28,3.378H102.4V17a11.3,11.3,0,0,0,1.192.069c1.261,0,1.891-.492,1.891-1.487a1.134,1.134,0,0,0-.473-.985,2.324,2.324,0,0,0-1.33-.335Zm-1.28-4.186v2.61h1.221a1.658,1.658,0,0,0,1.113-.355,1.235,1.235,0,0,0,.424-1.014,1.13,1.13,0,0,0-.424-.955,1.9,1.9,0,0,0-1.2-.335c-.433,0-.808.02-1.133.049Zm17.186-1.152v9.238a.52.52,0,0,1-.158.384.53.53,0,0,1-.384.167h-.709a.573.573,0,0,1-.552-.552V8.919a.573.573,0,0,1,.552-.552h.709a.53.53,0,0,1,.384.167A.52.52,0,0,1,119.588,8.919Zm-8.076,4.688V17c.079,0,.236.01.473.02s.4.02.5.02c1.359,0,2.039-.6,2.039-1.812A1.517,1.517,0,0,0,114,13.972a2.215,2.215,0,0,0-1.487-.433c-.158,0-.492.03-1,.069Zm-1.822,4.55V8.919a.573.573,0,0,1,.552-.552h.719a.573.573,0,0,1,.552.552v2.994a9.973,9.973,0,0,1,1.152-.069,4.041,4.041,0,0,1,2.817.877,3.146,3.146,0,0,1,.965,2.452,3.261,3.261,0,0,1-1.113,2.61,4.573,4.573,0,0,1-3.073.955c-.325,0-.995-.01-2.019-.03a.536.536,0,0,1-.394-.167.562.562,0,0,1-.158-.384Zm21.047.552h-.719a.573.573,0,0,1-.552-.552V11.372l-5.151,6.983a.845.845,0,0,1-.65.355h-.66a.573.573,0,0,1-.552-.552V8.919a.573.573,0,0,1,.552-.552h.719a.573.573,0,0,1,.552.552v6.806l5.151-6.983a.788.788,0,0,1,.65-.374h.66a.573.573,0,0,1,.552.552v9.238a.573.573,0,0,1-.552.552ZM130,5.847a1.79,1.79,0,0,1-.808,1.536,4.178,4.178,0,0,1-4.284,0,1.79,1.79,0,0,1-.808-1.536.871.871,0,0,1,.236-.62.823.823,0,0,1,.63-.256.773.773,0,0,1,.611.236.9.9,0,0,1,.217.64c0,.581.424.867,1.261.867s1.251-.286,1.251-.867a.9.9,0,0,1,.217-.64.773.773,0,0,1,.611-.236.823.823,0,0,1,.63.256A.871.871,0,0,1,130,5.847ZM78.291,28.155a3.959,3.959,0,0,0-1.832-.5,3.179,3.179,0,0,0-2.4.995,3.643,3.643,0,0,0-.965,2.64,3.526,3.526,0,0,0,1,2.61,3.427,3.427,0,0,0,2.571,1.024,3.928,3.928,0,0,0,1.861-.522.779.779,0,0,1,.345-.089.533.533,0,0,1,.473.256l.266.414a.559.559,0,0,1,.1.335.457.457,0,0,1-.207.414,5.692,5.692,0,0,1-6.855-.571,5.2,5.2,0,0,1-1.477-3.871,5.418,5.418,0,0,1,1.408-3.821,5.009,5.009,0,0,1,3.881-1.507,5.584,5.584,0,0,1,2.708.739.477.477,0,0,1,.3.424.57.57,0,0,1-.089.3l-.315.552a.511.511,0,0,1-.443.276.673.673,0,0,1-.325-.089Zm2.058,3.132a5.187,5.187,0,0,1,5.368-5.328,5.328,5.328,0,0,1,3.871,1.477,5.126,5.126,0,0,1,1.527,3.851,5.121,5.121,0,0,1-1.536,3.821,5.728,5.728,0,0,1-7.712.03,5.119,5.119,0,0,1-1.517-3.851Zm1.921,0a3.583,3.583,0,0,0,1,2.58,3.495,3.495,0,0,0,4.984.02,3.779,3.779,0,0,0,.936-2.6,3.581,3.581,0,0,0-.995-2.62,3.312,3.312,0,0,0-2.482-1.014,3.253,3.253,0,0,0-2.462,1.014A3.574,3.574,0,0,0,82.27,31.286Zm17.295-3.132a3.959,3.959,0,0,0-1.832-.5,3.2,3.2,0,0,0-2.413.995,3.637,3.637,0,0,0-.955,2.64,3.526,3.526,0,0,0,1,2.61,3.427,3.427,0,0,0,2.571,1.024A3.928,3.928,0,0,0,99.8,34.4a.741.741,0,0,1,.335-.089.533.533,0,0,1,.473.256l.266.414a.567.567,0,0,1,.108.335.457.457,0,0,1-.207.414,5.346,5.346,0,0,1-3,.886,5.26,5.26,0,0,1-3.851-1.458,5.2,5.2,0,0,1-1.477-3.871,5.411,5.411,0,0,1,1.4-3.821,5.031,5.031,0,0,1,3.89-1.507,5.548,5.548,0,0,1,2.7.739.477.477,0,0,1,.3.424.57.57,0,0,1-.089.3l-.305.552a.511.511,0,0,1-.443.276.674.674,0,0,1-.325-.089Zm3.841-1.655,3.152,5.387,2.295-5.358a.627.627,0,0,1,.62-.414H110a.536.536,0,0,1,.394.167.569.569,0,0,1,.167.394.584.584,0,0,1-.049.227l-3.171,7.141a5.146,5.146,0,0,1-1.221,1.832,2.351,2.351,0,0,1-1.586.581,2.743,2.743,0,0,1-.926-.167.465.465,0,0,1-.355-.453.728.728,0,0,1,.039-.227l.2-.532a.521.521,0,0,1,.483-.384,1.37,1.37,0,0,1,.266.03c.158.02.256.03.286.03a1.06,1.06,0,0,0,1.014-.719l.148-.355-4.117-6.835a.853.853,0,0,1-.079-.256.486.486,0,0,1,.138-.335.516.516,0,0,1,.355-.138h.749a.728.728,0,0,1,.67.384Zm10.115-.384h5.318a.53.53,0,0,1,.384.167.52.52,0,0,1,.158.384v8.086h.857a.573.573,0,0,1,.552.552v2.452a.53.53,0,0,1-.167.384.52.52,0,0,1-.384.158h-.6a.52.52,0,0,1-.384-.158.53.53,0,0,1-.167-.384v-1.3h-7.219v1.3a.53.53,0,0,1-.167.384.52.52,0,0,1-.384.158h-.6a.52.52,0,0,1-.384-.158.53.53,0,0,1-.167-.384V35.3a.573.573,0,0,1,.552-.552h.561a7.168,7.168,0,0,0,.975-2.3,17.578,17.578,0,0,0,.62-4.265l.069-1.517a.567.567,0,0,1,.177-.394.549.549,0,0,1,.4-.158Zm-.256,8.638h4.314V27.82h-2.846l-.167,1.793a15.6,15.6,0,0,1-.542,3.27A6.452,6.452,0,0,1,113.265,34.753Zm17.61,1.7h-.729a.53.53,0,0,1-.384-.167.52.52,0,0,1-.158-.384v-6.8L124.453,36.1a.845.845,0,0,1-.65.355h-.67a.53.53,0,0,1-.384-.167.52.52,0,0,1-.158-.384V26.667a.52.52,0,0,1,.158-.384.53.53,0,0,1,.384-.167h.729a.53.53,0,0,1,.384.167.52.52,0,0,1,.158.384v6.806l5.151-6.983a.788.788,0,0,1,.65-.374h.67a.53.53,0,0,1,.384.167.52.52,0,0,1,.158.384v9.238a.52.52,0,0,1-.158.384.53.53,0,0,1-.384.167Zm9.76-8.3a3.959,3.959,0,0,0-1.832-.5,3.179,3.179,0,0,0-2.4.995,3.643,3.643,0,0,0-.965,2.64,3.526,3.526,0,0,0,1,2.61,3.427,3.427,0,0,0,2.571,1.024,3.928,3.928,0,0,0,1.861-.522.779.779,0,0,1,.345-.089.533.533,0,0,1,.473.256l.266.414a.559.559,0,0,1,.1.335.457.457,0,0,1-.207.414,5.692,5.692,0,0,1-6.855-.571,5.2,5.2,0,0,1-1.477-3.871,5.418,5.418,0,0,1,1.408-3.821,5.009,5.009,0,0,1,3.88-1.507,5.584,5.584,0,0,1,2.708.739.477.477,0,0,1,.3.424.57.57,0,0,1-.089.3l-.315.552a.511.511,0,0,1-.443.276.674.674,0,0,1-.325-.089Zm6.589,8.3H146.5a.573.573,0,0,1-.552-.552V27.82h-2.807a.53.53,0,0,1-.384-.167.52.52,0,0,1-.158-.384v-.6a.52.52,0,0,1,.158-.384.53.53,0,0,1,.384-.167h7.426a.573.573,0,0,1,.552.552v.6a.573.573,0,0,1-.552.552h-2.8v8.086a.573.573,0,0,1-.552.552Zm15.374-9.79v9.238a.52.52,0,0,1-.158.384.53.53,0,0,1-.384.167h-.709a.573.573,0,0,1-.552-.552V26.667a.573.573,0,0,1,.552-.552h.709a.53.53,0,0,1,.384.167A.52.52,0,0,1,162.6,26.667Zm-8.076,4.688v3.388c.079,0,.236.01.473.02s.4.02.5.02c1.359,0,2.039-.6,2.039-1.812a1.55,1.55,0,0,0-.522-1.261,2.269,2.269,0,0,0-1.487-.424c-.158,0-.492.02-1,.069Zm-1.822,4.55V26.667a.573.573,0,0,1,.552-.552h.719a.573.573,0,0,1,.552.552v2.994a10.143,10.143,0,0,1,1.152-.079,4.043,4.043,0,0,1,2.817.886,3.146,3.146,0,0,1,.965,2.452,3.261,3.261,0,0,1-1.113,2.61,4.573,4.573,0,0,1-3.073.955c-.325,0-.995-.01-2.019-.03a.536.536,0,0,1-.394-.167.562.562,0,0,1-.158-.384Zm21.047.552h-.719a.573.573,0,0,1-.552-.552v-6.8L167.326,36.1a.845.845,0,0,1-.65.355h-.66a.573.573,0,0,1-.552-.552V26.667a.573.573,0,0,1,.552-.552h.719a.573.573,0,0,1,.552.552v6.806l5.151-6.983a.788.788,0,0,1,.65-.374h.66a.573.573,0,0,1,.552.552v9.238a.573.573,0,0,1-.552.552Zm-.739-12.863a1.79,1.79,0,0,1-.808,1.536,4.178,4.178,0,0,1-4.284,0,1.79,1.79,0,0,1-.808-1.536.871.871,0,0,1,.236-.62.823.823,0,0,1,.63-.256.773.773,0,0,1,.611.236.9.9,0,0,1,.217.64c0,.581.423.867,1.261.867s1.251-.286,1.251-.867a.9.9,0,0,1,.217-.64.773.773,0,0,1,.611-.236.823.823,0,0,1,.63.256A.871.871,0,0,1,173.008,23.594ZM80.97,56.047h-.611a.538.538,0,0,1-.542-.542v-1.3H72.49a.573.573,0,0,1-.552-.552V44.405a.574.574,0,0,1,.552-.542h.719a.574.574,0,0,1,.552.542v8.1h4.531v-8.1a.574.574,0,0,1,.552-.542h.719a.574.574,0,0,1,.552.542v8.1h.857a.53.53,0,0,1,.384.167.52.52,0,0,1,.158.384v2.452a.538.538,0,0,1-.542.542Zm8.47-2.994v.6a.52.52,0,0,1-.158.384.53.53,0,0,1-.384.167H83.855a.574.574,0,0,1-.542-.552V44.405a.575.575,0,0,1,.542-.542H88.75a.5.5,0,0,1,.384.167.484.484,0,0,1,.158.374v.611a.538.538,0,0,1-.542.542H85.126v2.571h3.181a.53.53,0,0,1,.384.167.52.52,0,0,1,.158.384v.6a.52.52,0,0,1-.158.384.53.53,0,0,1-.384.167H85.126V52.5H88.9a.53.53,0,0,1,.384.167.52.52,0,0,1,.158.384Zm10.716-8.647v9.248a.573.573,0,0,1-.552.552h-.709a.53.53,0,0,1-.384-.167.52.52,0,0,1-.158-.384V49.783H93.626v3.871a.573.573,0,0,1-.552.552h-.719a.573.573,0,0,1-.552-.552V44.405a.574.574,0,0,1,.552-.542h.719a.574.574,0,0,1,.552.542v3.684h4.728V44.405a.484.484,0,0,1,.158-.374.5.5,0,0,1,.384-.167H99.6a.574.574,0,0,1,.552.542Zm6.2,9.8h-.719a.573.573,0,0,1-.552-.552v-8.1h-2.8a.52.52,0,0,1-.384-.158.53.53,0,0,1-.167-.384v-.611a.574.574,0,0,1,.552-.542h7.426a.5.5,0,0,1,.384.167.484.484,0,0,1,.158.374v.611a.538.538,0,0,1-.542.542H106.9v8.1a.573.573,0,0,1-.552.552Zm8.421-10.371a5.817,5.817,0,0,1,1.9.276,2.987,2.987,0,0,1,1.251.749,3.124,3.124,0,0,1,.65,1.054,3.566,3.566,0,0,1,.207,1.241,3.2,3.2,0,0,1-1,2.383,3.788,3.788,0,0,1-2.777.975c-.6,0-1.054-.02-1.349-.049v3.191a.52.52,0,0,1-.158.384.53.53,0,0,1-.384.167h-.729a.53.53,0,0,1-.384-.167.52.52,0,0,1-.158-.384V44.405a.484.484,0,0,1,.158-.374.468.468,0,0,1,.384-.167q1.98-.03,2.393-.03Zm-1.123,1.724v3.181c.522.049.955.069,1.29.069a2.107,2.107,0,0,0,1.389-.424,1.5,1.5,0,0,0,.532-1.241c0-1.074-.64-1.615-1.911-1.615Z" transform="translate(-1.075 -0.075)" fill="#fff"/>
  <g id="Сгруппировать_2" data-name="Сгруппировать 2">
    <path id="Контур_4" data-name="Контур 4" d="M16.064,53.716A1.28,1.28,0,1,1,13.7,54.7a19.6,19.6,0,0,1-.916-13.168A24.555,24.555,0,0,1,20.8,29.823C35.732,17.216,30.02,6.737,27.656,2.561H17.186C13.67,5.121,12.37,7.347,12.154,9.4a10.932,10.932,0,0,1,1.615-2.019,10.29,10.29,0,0,1,7.17-3.033,7.589,7.589,0,0,1,5.466,2.4,8.257,8.257,0,0,1,2.3,5.643,7.588,7.588,0,0,1-2.285,5.437,7.775,7.775,0,0,1-5.486,2.246,5.635,5.635,0,0,1-3.949-1.615,5.494,5.494,0,0,1,0-7.859,5.6,5.6,0,0,1,3.949-1.625,3.491,3.491,0,0,1,2.433.995,3.4,3.4,0,0,1,0,4.846,3.491,3.491,0,0,1-2.433.995,1.28,1.28,0,0,1,0-2.561.9.9,0,0,0,.64-.256.856.856,0,0,0,.246-.6.875.875,0,0,0-.246-.6.9.9,0,0,0-.64-.256,3.028,3.028,0,0,0-2.157.886,2.949,2.949,0,0,0,0,4.215,3.061,3.061,0,0,0,2.157.877A5.2,5.2,0,0,0,24.632,16a5,5,0,0,0,1.517-3.615,5.605,5.605,0,0,0-1.586-3.871A5.011,5.011,0,0,0,20.939,6.9,7.758,7.758,0,0,0,15.552,9.2a7.528,7.528,0,0,0-2.3,5.033c.128.286.256.561.384.837,1.566,3.427,3.093,6.756-.069,10.8a1.274,1.274,0,1,1-2.009-1.566c2.206-2.827.995-5.466-.246-8.175-.158-.345-.315-.689-.473-1.044a1.4,1.4,0,0,1-.079-.177c-1.625-3.7-2.689-7.594,2.4-12.351H9.691a.929.929,0,0,0-.1.1,11.258,11.258,0,0,0-3.27,6.865,9.612,9.612,0,0,0,1.911,7.219q.148.192.355.414A1.272,1.272,0,1,1,6.737,18.9a6.447,6.447,0,0,1-.473-.532,12.172,12.172,0,0,1-2.482-9.13A14.361,14.361,0,0,1,6.313,2.561H2.561V57.439H8.815a23.013,23.013,0,0,1-1.98-16.891,27.2,27.2,0,0,1,1.231-3.7,11.948,11.948,0,0,0-3.624-13.02,1.272,1.272,0,1,1,1.714-1.881,14.419,14.419,0,0,1,5.033,9.2,33.4,33.4,0,0,1,7.958-8.086,1.279,1.279,0,0,1,1.477,2.088A30.007,30.007,0,0,0,10.5,37.653c-.256.847-.532,1.556-.729,2.058-.069.167-.128.315-.167.414-.1.345-.2.7-.286,1.054A20.536,20.536,0,0,0,11.76,57.439h9.061a19.142,19.142,0,0,1-2.275-7.456,18.863,18.863,0,0,1,1.783-9.947c2.039-4.186,5.062-7.249,7.948-10.174,4.915-4.964,9.406-9.5,6.953-18.723a1.273,1.273,0,1,1,2.462-.65c2.837,10.617-2.157,15.66-7.594,21.165-2.738,2.777-5.6,5.673-7.475,9.494a16.372,16.372,0,0,0-1.536,8.6,16.612,16.612,0,0,0,3.024,8.145,1.243,1.243,0,0,1,.305.827A1.278,1.278,0,0,1,23.135,60H1.28A1.278,1.278,0,0,1,0,58.72V1.28A1.278,1.278,0,0,1,1.28,0H28.4a1.269,1.269,0,0,1,1.152.729l.256.463c2.61,4.619,9.307,16.5-7.367,30.581a22.08,22.08,0,0,0-7.2,10.46,17.039,17.039,0,0,0,.817,11.484Z" transform="translate(0 0)" fill="url(#linear-gradient)"/>
    <path id="Контур_5" data-name="Контур 5" d="M37.907,2.019a1.2,1.2,0,0,1-.236-.739A1.276,1.276,0,0,1,38.941,0H54.384a1.278,1.278,0,0,1,1.28,1.28V58.72A1.278,1.278,0,0,1,54.384,60H29.978a1.271,1.271,0,0,1-1.074-.591c-3.457-4.777-4.639-8.726-4.156-12.508.483-3.762,2.62-7.209,5.821-11.051a1.276,1.276,0,1,1,1.96,1.635c-2.915,3.487-4.836,6.55-5.25,9.731-.384,3,.581,6.244,3.359,10.223H34.6a10.322,10.322,0,0,1-3.674-3.772A9.437,9.437,0,0,1,30,51.441a8.634,8.634,0,0,1,.2-5.19A7.833,7.833,0,0,1,33.7,42.134a8.942,8.942,0,0,1,1.556-.709l.03-.01c2.068-1,4.284-2.078,3.3-5.939a1.271,1.271,0,1,1,2.462-.63c.827,3.2.256,5.121-.916,6.431a7.776,7.776,0,0,1,5.23,5.368.738.738,0,0,1,.039.158,5.593,5.593,0,0,1-.552,4.156A5.515,5.515,0,0,1,37.257,53a5.653,5.653,0,0,1-2.59-3.408A3.456,3.456,0,0,1,35,47a3.419,3.419,0,0,1,2.078-1.615,3.374,3.374,0,0,1,2.59.364,3.426,3.426,0,0,1,1.6,2.078,1.279,1.279,0,1,1-2.472.66.86.86,0,0,0-1.054-.63.834.834,0,0,0-.512.394.9.9,0,0,0-.089.68,3.04,3.04,0,0,0,1.408,1.861,2.948,2.948,0,0,0,4.077-1.083,3.1,3.1,0,0,0,.3-2.324h0A5.244,5.244,0,0,0,40.507,44.2a5.058,5.058,0,0,0-3.89-.522h0a7.165,7.165,0,0,0-1.645.66,5.343,5.343,0,0,0-2.374,2.8,5.963,5.963,0,0,0-.128,3.644,6.966,6.966,0,0,0,.66,1.615,7.947,7.947,0,0,0,4.934,3.762,8.935,8.935,0,0,0,3.388.207A8.391,8.391,0,0,0,44.6,55.322a6.792,6.792,0,0,0,3.26-4.2c.975-3.713-1.2-8.7-3.23-13.365a52.213,52.213,0,0,1-2.669-6.953,20.4,20.4,0,0,1-.591-3.6c-.069.118-.128.227-.2.345a32.33,32.33,0,0,1-4.491,6A1.272,1.272,0,1,1,34.834,31.8a30.407,30.407,0,0,0,4.127-5.525,17.772,17.772,0,0,0,2.561-8.647,39.315,39.315,0,0,0-.778-8.155,24.666,24.666,0,0,0-2.837-7.456Zm8.116,55.42H53.1V2.561H50.267c3.171,5.25,1.694,9.425.1,13.887-1.645,4.629-3.418,9.613,1.133,16.674A1.28,1.28,0,0,1,49.341,34.5c-5.22-8.116-3.23-13.71-1.379-18.91,1.5-4.215,2.9-8.135-.768-13.03H41.088a28.156,28.156,0,0,1,2.147,6.382c.236,1.083.414,2.177.542,3.28A10.308,10.308,0,0,1,45.3,9.947a1.279,1.279,0,0,1,1.891,1.724C45.707,13.306,44.7,16.31,44.2,19.59a27.821,27.821,0,0,0,.227,10.558,51.522,51.522,0,0,0,2.541,6.6c2.206,5.053,4.57,10.46,3.368,15.03a9.278,9.278,0,0,1-4.314,5.663Z" transform="translate(-0.372)" fill="url(#linear-gradient-2)"/>
  </g>
</svg>
