<svg xmlns="http://www.w3.org/2000/svg" xmlns:xlink="http://www.w3.org/1999/xlink" width="415" height="497" viewBox="0 0 415 497">
  <defs>
    <clipPath id="clip-path">
      <rect id="Прямоугольник_6" data-name="Прямоугольник 6" width="415" height="497" transform="translate(1068.583 160)" fill="#efefef" stroke="#f3f1f1" stroke-width="1"/>
    </clipPath>
  </defs>
  <g id="Группа_масок_1" data-name="Группа масок 1" transform="translate(-1068.583 -160)" clip-path="url(#clip-path)" style="isolation: isolate">
    <g id="Содержимое_x0020_PowerClip" transform="translate(1078.789 160)" style="mix-blend-mode: screen;isolation: isolate">
      <path id="Контур_112" data-name="Контур 112" d="M8196.577,5204.429c35.293,132.543-81.683,159.349-129.649,257.674-23.051,47.248-20.548,108.536,14.378,156.861" transform="translate(-7924.141 -5121.965)" fill="none" stroke="#f3f1f1" stroke-linecap="round" stroke-linejoin="round" stroke-miterlimit="38.202" stroke-width="20" fill-rule="evenodd"/>
      <path id="Контур_113" data-name="Контур 113" d="M16592.164,18.56c25.744,42.834,33.406,93.021,33.277,141.471-.164,60.271-42.4,110.506-60.844,130.156" transform="translate(-16301.46 -18.56)" fill="none" stroke="#f3f1f1" stroke-linecap="round" stroke-linejoin="round" stroke-miterlimit="38.202" stroke-width="20" fill-rule="evenodd"/>
      <path id="Контур_114" data-name="Контур 114" d="M4574.38,476.571c-34.682-83.416,2.112-155.113,58.292-202.561,143.422-121.133,77.321-221.6,58.667-255.41" transform="translate(-4488.634 -18.599)" fill="none" stroke="#f3f1f1" stroke-linecap="round" stroke-linejoin="round" stroke-miterlimit="38.202" stroke-width="20" fill-rule="evenodd"/>
      <path id="Контур_115" data-name="Контур 115" d="M1412.254,12435.6c-87.03,61.893-149.394,188.277-76.377,299.551" transform="translate(-1283.238 -12238.148)" fill="none" stroke="#f3f1f1" stroke-linecap="round" stroke-linejoin="round" stroke-miterlimit="38.202" stroke-width="20" fill-rule="evenodd"/>
      <path id="Контур_116" data-name="Контур 116" d="M221.225,11920.424c4.726-13.932,40.972-84.965-26.6-146.146" transform="translate(-191.791 -11587.343)" fill="none" stroke="#f3f1f1" stroke-linecap="round" stroke-linejoin="round" stroke-miterlimit="38.202" stroke-width="20" fill-rule="evenodd"/>
      <path id="Контур_117" data-name="Контур 117" d="M22849.943,245.59c74.846,98.554-61.947,151.07,19.738,277.866" transform="translate(-22479.689 -241.98)" fill="none" stroke="#f3f1f1" stroke-linecap="round" stroke-linejoin="round" stroke-miterlimit="38.202" stroke-width="20" fill-rule="evenodd"/>
      <path id="Контур_118" data-name="Контур 118" d="M53.494,18.56C13.436,51.52,1.973,123.215,39.991,163.481" transform="translate(-16.726 -18.56)" fill="none" stroke="#f3f1f1" stroke-linecap="round" stroke-linejoin="round" stroke-miterlimit="38.202" stroke-width="20" fill-rule="evenodd"/>
      <path id="Контур_119" data-name="Контур 119" d="M11260.869,19273.3c-52.84,63.441-70.248,112.65-13.541,190.818" transform="translate(-11034.186 -18967.119)" fill="none" stroke="#f3f1f1" stroke-linecap="round" stroke-linejoin="round" stroke-miterlimit="38.202" stroke-width="20" fill-rule="evenodd"/>
      <path id="Контур_120" data-name="Контур 120" d="M3896.948,2459.768a18.47,18.47,0,1,0,0-36.937c-20.676,0-37.437,16.538-37.437,36.937s16.761,36.935,37.438,36.935c31.012,0,56.152-24.8,56.152-55.4s-25.141-58.541-56.152-58.541c-41.352,0-77.7,35.878-77.7,76.674" transform="translate(-3758.783 -2345.165)" fill="none" stroke="#f3f1f1" stroke-linecap="round" stroke-linejoin="round" stroke-miterlimit="22.926" stroke-width="20" fill-rule="evenodd"/>
      <path id="Контур_121" data-name="Контур 121" d="M14037.021,5527.585a18.47,18.47,0,1,0-35.678,9.561c5.354,19.97,25.664,31.88,45.369,26.6s31.338-25.749,25.984-45.719c-8.025-29.955-38.5-47.82-68.047-39.9-45.2,12.112-56.262,57.887-36.869,91.6,35.613,61.906,131.139,49.5,147.734-13.647,14.064-53.5-36.646-127.426-51.107-181.456-12.676-47.378-4.186-136.559,26.4-170.184" transform="translate(-13736.937 -5121.975)" fill="none" stroke="#f3f1f1" stroke-linecap="round" stroke-linejoin="round" stroke-miterlimit="22.926" stroke-width="20" fill-rule="evenodd"/>
      <path id="Контур_122" data-name="Контур 122" d="M3184.945,224.626c54.926-70.394-86.665-119.075,36.528-206.026" transform="translate(-3119.296 -18.599)" fill="none" stroke="#f3f1f1" stroke-linecap="round" stroke-linejoin="round" stroke-miterlimit="38.202" stroke-width="20" fill-rule="evenodd"/>
      <path id="Контур_123" data-name="Контур 123" d="M16592.246,18453.4c10.945,42.654-13.125,53.719-35.227,64.428" transform="translate(-16294.004 -18160.256)" fill="none" stroke="#f3f1f1" stroke-linecap="round" stroke-linejoin="round" stroke-miterlimit="22.926" stroke-width="20" fill-rule="evenodd"/>
    </g>
  </g>
</svg>
