<svg xmlns="http://www.w3.org/2000/svg" xmlns:xlink="http://www.w3.org/1999/xlink" width="305" height="366" viewBox="0 0 305 366">
  <defs>
    <clipPath id="clip-path">
      <rect id="Прямоугольник_6" data-name="Прямоугольник 6" width="305" height="366" transform="translate(1069 160)" fill="#efefef" stroke="#f6f6f6" stroke-width="1"/>
    </clipPath>
  </defs>
  <g id="Группа_масок_1" data-name="Группа масок 1" transform="translate(-1069 -160)" clip-path="url(#clip-path)" style="isolation: isolate">
    <g id="Содержимое_x0020_PowerClip" transform="translate(1076.209 160)" style="mix-blend-mode: screen;isolation: isolate">
      <path id="Контур_112" data-name="Контур 112" d="M8158.446,5204.429c25.99,97.607-60.152,117.347-95.477,189.756-16.975,34.794-15.131,79.928,10.588,115.516" transform="translate(-7957.819 -5143.701)" fill="none" stroke="#f6f6f6" stroke-linecap="round" stroke-linejoin="round" stroke-miterlimit="38.202" stroke-width="15" fill-rule="evenodd"/>
      <path id="Контур_113" data-name="Контур 113" d="M16584.9,18.56c18.959,31.544,24.6,68.5,24.506,104.182-.121,44.385-31.223,81.379-44.807,95.85" transform="translate(-16370.818 -18.56)" fill="none" stroke="#f6f6f6" stroke-linecap="round" stroke-linejoin="round" stroke-miterlimit="38.202" stroke-width="15" fill-rule="evenodd"/>
      <path id="Контур_114" data-name="Контур 114" d="M4570.825,355.858c-25.541-61.429,1.556-114.228,42.927-149.17,105.619-89.2,56.941-163.189,43.2-188.089" transform="translate(-4507.681 -18.599)" fill="none" stroke="#f6f6f6" stroke-linecap="round" stroke-linejoin="round" stroke-miterlimit="38.202" stroke-width="15" fill-rule="evenodd"/>
      <path id="Контур_115" data-name="Контур 115" d="M1383.642,12435.6c-64.09,45.578-110.017,138.65-56.245,220.595" transform="translate(-1288.632 -12290.192)" fill="none" stroke="#f6f6f6" stroke-linecap="round" stroke-linejoin="round" stroke-miterlimit="38.202" stroke-width="15" fill-rule="evenodd"/>
      <path id="Контур_116" data-name="Контур 116" d="M214.212,11881.9c3.48-10.26,30.172-62.57-19.592-107.625" transform="translate(-192.537 -11636.615)" fill="none" stroke="#f6f6f6" stroke-linecap="round" stroke-linejoin="round" stroke-miterlimit="38.202" stroke-width="15" fill-rule="evenodd"/>
      <path id="Контур_117" data-name="Контур 117" d="M22848.023,245.59c55.117,72.577-45.619,111.251,14.535,204.626" transform="translate(-22575.361 -242.931)" fill="none" stroke="#f6f6f6" stroke-linecap="round" stroke-linejoin="round" stroke-miterlimit="38.202" stroke-width="15" fill-rule="evenodd"/>
      <path id="Контур_118" data-name="Контур 118" d="M43.8,18.56C14.3,42.832,5.861,95.63,33.859,125.283" transform="translate(-16.726 -18.56)" fill="none" stroke="#f6f6f6" stroke-linecap="round" stroke-linejoin="round" stroke-miterlimit="38.202" stroke-width="15" fill-rule="evenodd"/>
      <path id="Контур_119" data-name="Контур 119" d="M11248.043,19273.3c-38.912,46.719-51.731,82.957-9.972,140.521" transform="translate(-11081.109 -19047.822)" fill="none" stroke="#f6f6f6" stroke-linecap="round" stroke-linejoin="round" stroke-miterlimit="38.202" stroke-width="15" fill-rule="evenodd"/>
      <path id="Контур_120" data-name="Контур 120" d="M3876.467,2439.47a13.6,13.6,0,1,0,0-27.2,27.2,27.2,0,1,0,0,54.4c22.838,0,41.352-18.267,41.352-40.8s-18.514-43.11-41.352-43.11c-30.452,0-57.219,26.421-57.219,56.464" transform="translate(-3774.72 -2355.074)" fill="none" stroke="#f6f6f6" stroke-linecap="round" stroke-linejoin="round" stroke-miterlimit="22.926" stroke-width="15" fill-rule="evenodd"/>
      <path id="Контур_121" data-name="Контур 121" d="M14016.36,5442.409a13.6,13.6,0,1,0-26.274,7.041,27.2,27.2,0,1,0,52.546-14.08c-5.909-22.06-28.349-35.216-50.111-29.384-33.286,8.92-41.432,42.628-27.15,67.456,26.226,45.589,96.572,36.454,108.795-10.05,10.356-39.4-26.987-93.838-37.638-133.627-9.334-34.89-3.081-100.564,19.439-125.326" transform="translate(-13795.372 -5143.71)" fill="none" stroke="#f6f6f6" stroke-linecap="round" stroke-linejoin="round" stroke-miterlimit="22.926" stroke-width="15" fill-rule="evenodd"/>
      <path id="Контур_122" data-name="Контур 122" d="M3180.855,170.321c40.448-51.84-63.822-87.689,26.9-151.722" transform="translate(-3132.509 -18.599)" fill="none" stroke="#f6f6f6" stroke-linecap="round" stroke-linejoin="round" stroke-miterlimit="38.202" stroke-width="15" fill-rule="evenodd"/>
      <path id="Контур_123" data-name="Контур 123" d="M16582.959,18453.4c8.061,31.41-9.664,39.559-25.941,47.445" transform="translate(-16363.328 -18237.523)" fill="none" stroke="#f6f6f6" stroke-linecap="round" stroke-linejoin="round" stroke-miterlimit="22.926" stroke-width="15" fill-rule="evenodd"/>
    </g>
  </g>
</svg>
